<svg width="128" height="128" viewBox="0 0 128 128" fill="none" xmlns="http://www.w3.org/2000/svg">
  <rect x="4" y="4" width="120" height="120" rx="36" fill="#EAF1D1"/>
  <path d="M64 25C43.013 25 26 41.118 26 61C26 75.267 35.093 87.596 48.1 93.16L44.5 105L57.843 96.999C59.847 97.33 61.9 97.5 64 97.5C84.987 97.5 102 81.382 102 61C102 41.118 84.987 25 64 25Z" fill="#7A9500"/>
  <path d="M48 61C48 56.582 51.582 53 56 53C60.418 53 64 56.582 64 61C64 65.418 60.418 69 56 69C51.582 69 48 65.418 48 61Z" fill="white"/>
  <path d="M72 61C72 56.582 75.582 53 80 53C84.418 53 88 56.582 88 61C88 65.418 84.418 69 80 69C75.582 69 72 65.418 72 61Z" fill="white"/>
  <circle cx="56" cy="61" r="4" fill="#29320D"/>
  <circle cx="80" cy="61" r="4" fill="#29320D"/>
  <path d="M54 78C59.523 83.333 68.477 83.333 74 78" stroke="white" stroke-width="4" stroke-linecap="round"/>
  <path d="M91 33L94 39L100 42L94 45L91 51L88 45L82 42L88 39L91 33Z" fill="#F1BE45"/>
</svg>
